<?xml version="1.0" encoding="UTF-8" standalone="no"?>
<!DOCTYPE svg PUBLIC "-//W3C//DTD SVG 1.1//EN"
 "http://www.w3.org/Graphics/SVG/1.1/DTD/svg11.dtd">
<!-- Generated by graphviz version 2.38.0 (20140413.2041)
 -->
<!-- Title: git&#45;history Pages: 1 -->
<svg width="218pt" height="332pt"
 viewBox="0.00 0.00 218.00 332.00" xmlns="http://www.w3.org/2000/svg" xmlns:xlink="http://www.w3.org/1999/xlink">
<g id="graph0" class="graph" transform="scale(1 1) rotate(0) translate(4 328)">
<title>git&#45;history</title>
<polygon fill="white" stroke="none" points="-4,4 -4,-328 214,-328 214,4 -4,4"/>
<g id="clust2" class="cluster"><title>cluster_developer2</title>
</g>
<!-- remote -->
<g id="node1" class="node"><title>remote</title>
<polygon fill="lightblue" stroke="black" points="122,-260 -7.10543e-15,-260 -7.10543e-15,-242 122,-242 122,-260"/>
<text text-anchor="middle" x="61" y="-248.8" font-family="Times,serif" font-size="9.00">remotes/MYSERVER/master</text>
</g>
<!-- c -->
<g id="node5" class="node"><title>c</title>
<ellipse fill="none" stroke="black" cx="78" cy="-164" rx="27" ry="18"/>
<text text-anchor="middle" x="78" y="-160.3" font-family="Times,serif" font-size="14.00">c</text>
</g>
<!-- remote&#45;&gt;c -->
<g id="edge6" class="edge"><title>remote&#45;&gt;c</title>
<path fill="none" stroke="black" d="M62.63,-241.85C64.9011,-230.494 69.1266,-209.367 72.5731,-192.134"/>
<polygon fill="black" stroke="black" points="76.0648,-192.522 74.594,-182.03 69.2007,-191.15 76.0648,-192.522"/>
</g>
<!-- master -->
<g id="node2" class="node"><title>master</title>
<polygon fill="yellow" stroke="black" points="194,-324 140,-324 140,-306 194,-306 194,-324"/>
<text text-anchor="middle" x="167" y="-312.8" font-family="Times,serif" font-size="9.00">master</text>
</g>
<!-- d2 -->
<g id="node7" class="node"><title>d2</title>
<ellipse fill="none" stroke="black" cx="167" cy="-251" rx="27" ry="18"/>
<text text-anchor="middle" x="167" y="-247.3" font-family="Times,serif" font-size="14.00">d2</text>
</g>
<!-- master&#45;&gt;d2 -->
<g id="edge7" class="edge"><title>master&#45;&gt;d2</title>
<path fill="none" stroke="black" d="M167,-305.895C167,-299.097 167,-288.981 167,-279.343"/>
<polygon fill="black" stroke="black" points="170.5,-279.252 167,-269.252 163.5,-279.252 170.5,-279.252"/>
</g>
<!-- a -->
<g id="node3" class="node"><title>a</title>
<ellipse fill="none" stroke="black" cx="78" cy="-18" rx="27" ry="18"/>
<text text-anchor="middle" x="78" y="-14.3" font-family="Times,serif" font-size="14.00">a</text>
</g>
<!-- b -->
<g id="node4" class="node"><title>b</title>
<ellipse fill="none" stroke="black" cx="78" cy="-91" rx="27" ry="18"/>
<text text-anchor="middle" x="78" y="-87.3" font-family="Times,serif" font-size="14.00">b</text>
</g>
<!-- b&#45;&gt;a -->
<g id="edge1" class="edge"><title>b&#45;&gt;a</title>
<path fill="none" stroke="black" d="M78,-72.8129C78,-64.7895 78,-55.0475 78,-46.0691"/>
<polygon fill="black" stroke="black" points="81.5001,-46.0288 78,-36.0288 74.5001,-46.0289 81.5001,-46.0288"/>
</g>
<!-- c&#45;&gt;b -->
<g id="edge2" class="edge"><title>c&#45;&gt;b</title>
<path fill="none" stroke="black" d="M78,-145.813C78,-137.789 78,-128.047 78,-119.069"/>
<polygon fill="black" stroke="black" points="81.5001,-119.029 78,-109.029 74.5001,-119.029 81.5001,-119.029"/>
</g>
<!-- d -->
<g id="node6" class="node"><title>d</title>
<ellipse fill="none" stroke="gray" stroke-dasharray="1,5" cx="167" cy="-164" rx="27" ry="18"/>
<text text-anchor="middle" x="167" y="-160.3" font-family="Times,serif" font-size="14.00">d</text>
</g>
<!-- d&#45;&gt;b -->
<g id="edge3" class="edge"><title>d&#45;&gt;b</title>
<path fill="none" stroke="black" d="M150.26,-149.645C136.834,-138.935 117.796,-123.747 102.631,-111.65"/>
<polygon fill="black" stroke="black" points="104.665,-108.795 94.6652,-105.295 100.3,-114.267 104.665,-108.795"/>
</g>
<!-- d2&#45;&gt;c -->
<g id="edge4" class="edge"><title>d2&#45;&gt;c</title>
<path fill="none" stroke="black" d="M151.902,-235.581C137.753,-222.067 116.424,-201.697 100.311,-186.308"/>
<polygon fill="black" stroke="black" points="102.524,-183.582 92.8747,-179.206 97.6891,-188.644 102.524,-183.582"/>
</g>
<!-- d2&#45;&gt;d -->
<g id="edge5" class="edge"><title>d2&#45;&gt;d</title>
<path fill="none" stroke="blue" d="M167,-222.734C167,-209.419 167,-193.806 167,-182.175"/>
<polygon fill="blue" stroke="blue" points="163.5,-222.799 167,-232.799 170.5,-222.799 163.5,-222.799"/>
<text text-anchor="middle" x="184.5" y="-203.8" font-family="Times,serif" font-size="14.00">rebase</text>
</g>
</g>
</svg>
