<?xml version="1.0" encoding="UTF-8" standalone="no"?>
<!DOCTYPE svg PUBLIC "-//W3C//DTD SVG 1.1//EN"
 "http://www.w3.org/Graphics/SVG/1.1/DTD/svg11.dtd">
<!-- Generated by graphviz version 2.38.0 (20140413.2041)
 -->
<!-- Title: git&#45;storage Pages: 1 -->
<svg width="166pt" height="237pt"
 viewBox="0.00 0.00 166.41 236.74" xmlns="http://www.w3.org/2000/svg" xmlns:xlink="http://www.w3.org/1999/xlink">
<g id="graph0" class="graph" transform="scale(1 1) rotate(0) translate(4 232.74)">
<title>git&#45;storage</title>
<polygon fill="white" stroke="none" points="-4,4 -4,-232.74 162.409,-232.74 162.409,4 -4,4"/>
<!-- blob -->
<g id="node1" class="node"><title>blob</title>
<ellipse fill="none" stroke="black" cx="50.2046" cy="-18" rx="27" ry="18"/>
<text text-anchor="middle" x="50.2046" y="-14.3" font-family="Times,serif" font-size="14.00">blob</text>
</g>
<!-- tree -->
<g id="node2" class="node"><title>tree</title>
<ellipse fill="none" stroke="black" cx="50.2046" cy="-120" rx="27" ry="18"/>
<text text-anchor="middle" x="50.2046" y="-116.3" font-family="Times,serif" font-size="14.00">tree</text>
</g>
<!-- tree&#45;&gt;blob -->
<g id="edge1" class="edge"><title>tree&#45;&gt;blob</title>
<path fill="none" stroke="black" d="M50.2046,-101.581C50.2046,-86.3816 50.2046,-64.0669 50.2046,-46.4644"/>
<polygon fill="black" stroke="black" points="53.7047,-46.219 50.2046,-36.2191 46.7047,-46.2191 53.7047,-46.219"/>
<text text-anchor="start" x="50.2046" y="-72.8" font-family="Times,serif" font-size="14.00">+filename</text>
<text text-anchor="start" x="50.2046" y="-57.8" font-family="Times,serif" font-size="14.00">+mode</text>
</g>
<!-- tree&#45;&gt;tree -->
<g id="edge2" class="edge"><title>tree&#45;&gt;tree</title>
<path fill="none" stroke="black" d="M75.6481,-126.691C86.2324,-127.152 95.2046,-124.922 95.2046,-120 95.2046,-116.77 91.3406,-114.699 85.6927,-113.788"/>
<polygon fill="black" stroke="black" points="85.8033,-110.289 75.6481,-113.309 85.4702,-117.281 85.8033,-110.289"/>
<text text-anchor="start" x="95.2046" y="-123.8" font-family="Times,serif" font-size="14.00">subdir</text>
<text text-anchor="middle" x="123.705" y="-108.8" font-family="Times,serif" font-size="14.00">+filename</text>
</g>
<!-- commit -->
<g id="node3" class="node"><title>commit</title>
<ellipse fill="none" stroke="black" cx="50.2046" cy="-201.87" rx="50.41" ry="26.7407"/>
<text text-anchor="start" x="22.7046" y="-205.67" font-family="Times,serif" font-size="14.00">commit</text>
<text text-anchor="start" x="22.7046" y="-190.67" font-family="Times,serif" font-size="14.00">&#45; message</text>
</g>
<!-- commit&#45;&gt;tree -->
<g id="edge3" class="edge"><title>commit&#45;&gt;tree</title>
<path fill="none" stroke="black" d="M50.2046,-174.718C50.2046,-166.273 50.2046,-156.89 50.2046,-148.36"/>
<polygon fill="black" stroke="black" points="53.7047,-148.146 50.2046,-138.146 46.7047,-148.146 53.7047,-148.146"/>
</g>
<!-- commit&#45;&gt;commit -->
<g id="edge4" class="edge"><title>commit&#45;&gt;commit</title>
<path fill="none" stroke="black" d="M98.3236,-209.975C109.861,-209.341 118.409,-206.64 118.409,-201.87 118.409,-198.666 114.55,-196.395 108.519,-195.057"/>
<polygon fill="black" stroke="black" points="108.684,-191.55 98.3236,-193.766 107.804,-198.495 108.684,-191.55"/>
<text text-anchor="middle" x="138.409" y="-198.17" font-family="Times,serif" font-size="14.00">parents</text>
</g>
</g>
</svg>
