<?xml version="1.0" encoding="UTF-8" standalone="no"?>
<!DOCTYPE svg PUBLIC "-//W3C//DTD SVG 1.1//EN"
 "http://www.w3.org/Graphics/SVG/1.1/DTD/svg11.dtd">
<!-- Generated by graphviz version 2.38.0 (20140413.2041)
 -->
<!-- Title: git&#45;history Pages: 1 -->
<svg width="202pt" height="170pt"
 viewBox="0.00 0.00 202.00 170.00" xmlns="http://www.w3.org/2000/svg" xmlns:xlink="http://www.w3.org/1999/xlink">
<g id="graph0" class="graph" transform="scale(1 1) rotate(0) translate(4 166)">
<title>git&#45;history</title>
<polygon fill="white" stroke="none" points="-4,4 -4,-166 198,-166 198,4 -4,4"/>
<!-- remote -->
<g id="node1" class="node"><title>remote</title>
<polygon fill="lightblue" stroke="black" points="122,-162 -7.10543e-15,-162 -7.10543e-15,-144 122,-144 122,-162"/>
<text text-anchor="middle" x="61" y="-150.8" font-family="Times,serif" font-size="9.00">remotes/MYSERVER/master</text>
</g>
<!-- b -->
<g id="node4" class="node"><title>b</title>
<ellipse fill="none" stroke="black" cx="114" cy="-90" rx="27" ry="18"/>
<text text-anchor="middle" x="114" y="-86.3" font-family="Times,serif" font-size="14.00">b</text>
</g>
<!-- remote&#45;&gt;b -->
<g id="edge2" class="edge"><title>remote&#45;&gt;b</title>
<path fill="none" stroke="black" d="M68.1478,-143.773C74.8125,-136.103 85.0681,-124.299 94.1914,-113.799"/>
<polygon fill="black" stroke="black" points="96.9524,-115.957 100.869,-106.113 91.6683,-111.366 96.9524,-115.957"/>
</g>
<!-- master -->
<g id="node2" class="node"><title>master</title>
<polygon fill="yellow" stroke="black" points="194,-162 140,-162 140,-144 194,-144 194,-162"/>
<text text-anchor="middle" x="167" y="-150.8" font-family="Times,serif" font-size="9.00">master</text>
</g>
<!-- master&#45;&gt;b -->
<g id="edge3" class="edge"><title>master&#45;&gt;b</title>
<path fill="none" stroke="black" d="M159.852,-143.773C153.187,-136.103 142.932,-124.299 133.809,-113.799"/>
<polygon fill="black" stroke="black" points="136.332,-111.366 127.131,-106.113 131.048,-115.957 136.332,-111.366"/>
</g>
<!-- a -->
<g id="node3" class="node"><title>a</title>
<ellipse fill="none" stroke="black" cx="114" cy="-18" rx="27" ry="18"/>
<text text-anchor="middle" x="114" y="-14.3" font-family="Times,serif" font-size="14.00">a</text>
</g>
<!-- b&#45;&gt;a -->
<g id="edge1" class="edge"><title>b&#45;&gt;a</title>
<path fill="none" stroke="black" d="M114,-71.6966C114,-63.9827 114,-54.7125 114,-46.1124"/>
<polygon fill="black" stroke="black" points="117.5,-46.1043 114,-36.1043 110.5,-46.1044 117.5,-46.1043"/>
</g>
</g>
</svg>
