<?xml version="1.0" encoding="UTF-8" standalone="no"?>
<!DOCTYPE svg PUBLIC "-//W3C//DTD SVG 1.1//EN"
 "http://www.w3.org/Graphics/SVG/1.1/DTD/svg11.dtd">
<!-- Generated by graphviz version 2.38.0 (20140413.2041)
 -->
<!-- Title: git&#45;history Pages: 1 -->
<svg width="209pt" height="242pt"
 viewBox="0.00 0.00 209.00 242.00" xmlns="http://www.w3.org/2000/svg" xmlns:xlink="http://www.w3.org/1999/xlink">
<g id="graph0" class="graph" transform="scale(1 1) rotate(0) translate(4 238)">
<title>git&#45;history</title>
<polygon fill="white" stroke="none" points="-4,4 -4,-238 205,-238 205,4 -4,4"/>
<g id="clust2" class="cluster"><title>cluster_developer2</title>
</g>
<!-- remote -->
<g id="node1" class="node"><title>remote</title>
<polygon fill="lightblue" stroke="black" points="122,-234 -7.10543e-15,-234 -7.10543e-15,-216 122,-216 122,-234"/>
<text text-anchor="middle" x="61" y="-222.8" font-family="Times,serif" font-size="9.00">remotes/MYSERVER/master</text>
</g>
<!-- c -->
<g id="node5" class="node"><title>c</title>
<ellipse fill="none" stroke="black" cx="69" cy="-162" rx="27" ry="18"/>
<text text-anchor="middle" x="69" y="-158.3" font-family="Times,serif" font-size="14.00">c</text>
</g>
<!-- remote&#45;&gt;c -->
<g id="edge4" class="edge"><title>remote&#45;&gt;c</title>
<path fill="none" stroke="black" d="M62.0789,-215.773C62.9466,-209.157 64.2174,-199.467 65.434,-190.19"/>
<polygon fill="black" stroke="black" points="68.9301,-190.448 66.7603,-180.078 61.9895,-189.538 68.9301,-190.448"/>
</g>
<!-- master -->
<g id="node2" class="node"><title>master</title>
<polygon fill="yellow" stroke="black" points="194,-234 140,-234 140,-216 194,-216 194,-234"/>
<text text-anchor="middle" x="167" y="-222.8" font-family="Times,serif" font-size="9.00">master</text>
</g>
<!-- d -->
<g id="node6" class="node"><title>d</title>
<ellipse fill="none" stroke="black" cx="158" cy="-162" rx="27" ry="18"/>
<text text-anchor="middle" x="158" y="-158.3" font-family="Times,serif" font-size="14.00">d</text>
</g>
<!-- master&#45;&gt;d -->
<g id="edge5" class="edge"><title>master&#45;&gt;d</title>
<path fill="none" stroke="black" d="M165.786,-215.773C164.81,-209.157 163.38,-199.467 162.012,-190.19"/>
<polygon fill="black" stroke="black" points="165.442,-189.46 160.52,-180.078 158.517,-190.482 165.442,-189.46"/>
</g>
<!-- a -->
<g id="node3" class="node"><title>a</title>
<ellipse fill="none" stroke="black" cx="69" cy="-18" rx="27" ry="18"/>
<text text-anchor="middle" x="69" y="-14.3" font-family="Times,serif" font-size="14.00">a</text>
</g>
<!-- b -->
<g id="node4" class="node"><title>b</title>
<ellipse fill="none" stroke="black" cx="69" cy="-90" rx="27" ry="18"/>
<text text-anchor="middle" x="69" y="-86.3" font-family="Times,serif" font-size="14.00">b</text>
</g>
<!-- b&#45;&gt;a -->
<g id="edge1" class="edge"><title>b&#45;&gt;a</title>
<path fill="none" stroke="black" d="M69,-71.6966C69,-63.9827 69,-54.7125 69,-46.1124"/>
<polygon fill="black" stroke="black" points="72.5001,-46.1043 69,-36.1043 65.5001,-46.1044 72.5001,-46.1043"/>
</g>
<!-- c&#45;&gt;b -->
<g id="edge2" class="edge"><title>c&#45;&gt;b</title>
<path fill="none" stroke="black" d="M69,-143.697C69,-135.983 69,-126.712 69,-118.112"/>
<polygon fill="black" stroke="black" points="72.5001,-118.104 69,-108.104 65.5001,-118.104 72.5001,-118.104"/>
</g>
<!-- d&#45;&gt;b -->
<g id="edge3" class="edge"><title>d&#45;&gt;b</title>
<path fill="none" stroke="black" d="M141.26,-147.834C127.919,-137.341 109.037,-122.489 93.9196,-110.6"/>
<polygon fill="black" stroke="black" points="95.9916,-107.777 85.9678,-104.345 91.6641,-113.279 95.9916,-107.777"/>
</g>
</g>
</svg>
