<?xml version="1.0" encoding="UTF-8" standalone="no"?>
<!DOCTYPE svg PUBLIC "-//W3C//DTD SVG 1.1//EN"
 "http://www.w3.org/Graphics/SVG/1.1/DTD/svg11.dtd">
<!-- Generated by graphviz version 2.38.0 (20140413.2041)
 -->
<!-- Title: git&#45;history Pages: 1 -->
<svg width="290pt" height="565pt"
 viewBox="0.00 0.00 290.00 565.00" xmlns="http://www.w3.org/2000/svg" xmlns:xlink="http://www.w3.org/1999/xlink">
<g id="graph0" class="graph" transform="scale(1 1) rotate(0) translate(4 561)">
<title>git&#45;history</title>
<polygon fill="white" stroke="none" points="-4,4 -4,-561 286,-561 286,4 -4,4"/>
<g id="clust2" class="cluster"><title>cluster_developer2</title>
</g>
<!-- remote -->
<g id="node1" class="node"><title>remote</title>
<polygon fill="lightblue" stroke="black" points="122,-406 -7.10543e-15,-406 -7.10543e-15,-388 122,-388 122,-406"/>
<text text-anchor="middle" x="61" y="-394.8" font-family="Times,serif" font-size="9.00">remotes/MYSERVER/master</text>
</g>
<!-- g -->
<g id="node8" class="node"><title>g</title>
<ellipse fill="none" stroke="black" cx="79" cy="-310" rx="27" ry="18"/>
<text text-anchor="middle" x="79" y="-306.3" font-family="Times,serif" font-size="14.00">g</text>
</g>
<!-- remote&#45;&gt;g -->
<g id="edge11" class="edge"><title>remote&#45;&gt;g</title>
<path fill="none" stroke="black" d="M62.7259,-387.85C65.1306,-376.494 69.6046,-355.367 73.2539,-338.134"/>
<polygon fill="black" stroke="black" points="76.7459,-338.538 75.3936,-328.03 69.8978,-337.088 76.7459,-338.538"/>
</g>
<!-- master -->
<g id="node2" class="node"><title>master</title>
<polygon fill="yellow" stroke="black" points="194,-557 140,-557 140,-539 194,-539 194,-557"/>
<text text-anchor="middle" x="167" y="-545.8" font-family="Times,serif" font-size="9.00">master</text>
</g>
<!-- h2 -->
<g id="node10" class="node"><title>h2</title>
<ellipse fill="none" stroke="black" cx="167" cy="-484" rx="27" ry="18"/>
<text text-anchor="middle" x="167" y="-480.3" font-family="Times,serif" font-size="14.00">h2</text>
</g>
<!-- master&#45;&gt;h2 -->
<g id="edge12" class="edge"><title>master&#45;&gt;h2</title>
<path fill="none" stroke="black" d="M167,-538.895C167,-532.097 167,-521.981 167,-512.343"/>
<polygon fill="black" stroke="black" points="170.5,-512.252 167,-502.252 163.5,-512.252 170.5,-512.252"/>
</g>
<!-- a -->
<g id="node3" class="node"><title>a</title>
<ellipse fill="none" stroke="black" cx="79" cy="-18" rx="27" ry="18"/>
<text text-anchor="middle" x="79" y="-14.3" font-family="Times,serif" font-size="14.00">a</text>
</g>
<!-- b -->
<g id="node4" class="node"><title>b</title>
<ellipse fill="none" stroke="black" cx="79" cy="-91" rx="27" ry="18"/>
<text text-anchor="middle" x="79" y="-87.3" font-family="Times,serif" font-size="14.00">b</text>
</g>
<!-- b&#45;&gt;a -->
<g id="edge1" class="edge"><title>b&#45;&gt;a</title>
<path fill="none" stroke="black" d="M79,-72.8129C79,-64.7895 79,-55.0475 79,-46.0691"/>
<polygon fill="black" stroke="black" points="82.5001,-46.0288 79,-36.0288 75.5001,-46.0289 82.5001,-46.0288"/>
</g>
<!-- c -->
<g id="node5" class="node"><title>c</title>
<ellipse fill="none" stroke="black" cx="79" cy="-164" rx="27" ry="18"/>
<text text-anchor="middle" x="79" y="-160.3" font-family="Times,serif" font-size="14.00">c</text>
</g>
<!-- c&#45;&gt;b -->
<g id="edge2" class="edge"><title>c&#45;&gt;b</title>
<path fill="none" stroke="black" d="M79,-145.813C79,-137.789 79,-128.047 79,-119.069"/>
<polygon fill="black" stroke="black" points="82.5001,-119.029 79,-109.029 75.5001,-119.029 82.5001,-119.029"/>
</g>
<!-- d2 -->
<g id="node6" class="node"><title>d2</title>
<ellipse fill="none" stroke="gray" stroke-dasharray="1,5" cx="239" cy="-310" rx="27" ry="18"/>
<text text-anchor="middle" x="239" y="-306.3" font-family="Times,serif" font-size="14.00">d2</text>
</g>
<!-- d2&#45;&gt;c -->
<g id="edge3" class="edge"><title>d2&#45;&gt;c</title>
<path fill="none" stroke="black" d="M223.367,-294.93C195.096,-269.487 135.342,-215.708 102.261,-185.935"/>
<polygon fill="black" stroke="black" points="104.235,-183.003 94.4607,-178.915 99.5523,-188.206 104.235,-183.003"/>
</g>
<!-- h -->
<g id="node7" class="node"><title>h</title>
<ellipse fill="none" stroke="gray" stroke-dasharray="1,5" cx="239" cy="-397" rx="27" ry="18"/>
<text text-anchor="middle" x="239" y="-393.3" font-family="Times,serif" font-size="14.00">h</text>
</g>
<!-- h&#45;&gt;d2 -->
<g id="edge4" class="edge"><title>h&#45;&gt;d2</title>
<path fill="none" stroke="black" d="M239,-378.799C239,-367.163 239,-351.548 239,-338.237"/>
<polygon fill="black" stroke="black" points="242.5,-338.175 239,-328.175 235.5,-338.175 242.5,-338.175"/>
</g>
<!-- f -->
<g id="node9" class="node"><title>f</title>
<ellipse fill="none" stroke="black" cx="79" cy="-237" rx="27" ry="18"/>
<text text-anchor="middle" x="79" y="-233.3" font-family="Times,serif" font-size="14.00">f</text>
</g>
<!-- g&#45;&gt;f -->
<g id="edge5" class="edge"><title>g&#45;&gt;f</title>
<path fill="none" stroke="black" d="M79,-291.813C79,-283.789 79,-274.047 79,-265.069"/>
<polygon fill="black" stroke="black" points="82.5001,-265.029 79,-255.029 75.5001,-265.029 82.5001,-265.029"/>
</g>
<!-- f&#45;&gt;c -->
<g id="edge6" class="edge"><title>f&#45;&gt;c</title>
<path fill="none" stroke="black" d="M79,-218.813C79,-210.789 79,-201.047 79,-192.069"/>
<polygon fill="black" stroke="black" points="82.5001,-192.029 79,-182.029 75.5001,-192.029 82.5001,-192.029"/>
</g>
<!-- h2&#45;&gt;h -->
<g id="edge10" class="edge"><title>h2&#45;&gt;h</title>
<path fill="none" stroke="blue" d="M186.48,-460.002C199.115,-445.087 215.216,-426.079 226.239,-413.065"/>
<polygon fill="blue" stroke="blue" points="183.665,-457.911 179.872,-467.804 189.006,-462.435 183.665,-457.911"/>
<text text-anchor="middle" x="224.5" y="-436.8" font-family="Times,serif" font-size="14.00">rebase</text>
</g>
<!-- d3 -->
<g id="node11" class="node"><title>d3</title>
<ellipse fill="none" stroke="black" cx="167" cy="-397" rx="27" ry="18"/>
<text text-anchor="middle" x="167" y="-393.3" font-family="Times,serif" font-size="14.00">d3</text>
</g>
<!-- h2&#45;&gt;d3 -->
<g id="edge7" class="edge"><title>h2&#45;&gt;d3</title>
<path fill="none" stroke="black" d="M167,-465.799C167,-454.163 167,-438.548 167,-425.237"/>
<polygon fill="black" stroke="black" points="170.5,-425.175 167,-415.175 163.5,-425.175 170.5,-425.175"/>
</g>
<!-- d3&#45;&gt;d2 -->
<g id="edge9" class="edge"><title>d3&#45;&gt;d2</title>
<path fill="none" stroke="blue" d="M181.523,-371.298C186.897,-362.933 193.318,-353.753 200,-346 206.652,-338.282 214.949,-330.618 222.177,-324.438"/>
<polygon fill="blue" stroke="blue" points="178.452,-369.609 176.141,-379.949 184.396,-373.307 178.452,-369.609"/>
<text text-anchor="middle" x="217.5" y="-349.8" font-family="Times,serif" font-size="14.00">rebase</text>
</g>
<!-- d3&#45;&gt;g -->
<g id="edge8" class="edge"><title>d3&#45;&gt;g</title>
<path fill="none" stroke="black" d="M152.072,-381.581C138.081,-368.067 116.992,-347.697 101.061,-332.308"/>
<polygon fill="black" stroke="black" points="103.332,-329.636 93.7075,-325.206 98.4686,-334.671 103.332,-329.636"/>
</g>
</g>
</svg>
