<?xml version="1.0" encoding="UTF-8" standalone="no"?>
<!DOCTYPE svg PUBLIC "-//W3C//DTD SVG 1.1//EN"
 "http://www.w3.org/Graphics/SVG/1.1/DTD/svg11.dtd">
<!-- Generated by graphviz version 2.38.0 (20140413.2041)
 -->
<!-- Title: git&#45;history Pages: 1 -->
<svg width="218pt" height="458pt"
 viewBox="0.00 0.00 218.00 458.00" xmlns="http://www.w3.org/2000/svg" xmlns:xlink="http://www.w3.org/1999/xlink">
<g id="graph0" class="graph" transform="scale(1 1) rotate(0) translate(4 454)">
<title>git&#45;history</title>
<polygon fill="white" stroke="none" points="-4,4 -4,-454 214,-454 214,4 -4,4"/>
<g id="clust2" class="cluster"><title>cluster_developer2</title>
</g>
<!-- remote -->
<g id="node1" class="node"><title>remote</title>
<polygon fill="lightblue" stroke="black" points="122,-387 -7.10543e-15,-387 -7.10543e-15,-369 122,-369 122,-387"/>
<text text-anchor="middle" x="61" y="-375.8" font-family="Times,serif" font-size="9.00">remotes/MYSERVER/master</text>
</g>
<!-- g -->
<g id="node8" class="node"><title>g</title>
<ellipse fill="none" stroke="black" cx="95" cy="-306" rx="27" ry="18"/>
<text text-anchor="middle" x="95" y="-302.3" font-family="Times,serif" font-size="14.00">g</text>
</g>
<!-- remote&#45;&gt;g -->
<g id="edge11" class="edge"><title>remote&#45;&gt;g</title>
<path fill="none" stroke="black" d="M64.9002,-368.97C69.1813,-360.156 76.2748,-345.552 82.5005,-332.734"/>
<polygon fill="black" stroke="black" points="85.8104,-333.931 87.0312,-323.406 79.5138,-330.872 85.8104,-333.931"/>
</g>
<!-- master -->
<g id="node2" class="node"><title>master</title>
<polygon fill="yellow" stroke="black" points="194,-450 140,-450 140,-432 194,-432 194,-450"/>
<text text-anchor="middle" x="167" y="-438.8" font-family="Times,serif" font-size="9.00">master</text>
</g>
<!-- i -->
<g id="node11" class="node"><title>i</title>
<ellipse fill="none" stroke="black" cx="167" cy="-378" rx="27" ry="18"/>
<text text-anchor="middle" x="167" y="-374.3" font-family="Times,serif" font-size="14.00">i</text>
</g>
<!-- master&#45;&gt;i -->
<g id="edge12" class="edge"><title>master&#45;&gt;i</title>
<path fill="none" stroke="black" d="M167,-431.773C167,-425.157 167,-415.467 167,-406.19"/>
<polygon fill="black" stroke="black" points="170.5,-406.078 167,-396.078 163.5,-406.078 170.5,-406.078"/>
</g>
<!-- a -->
<g id="node3" class="node"><title>a</title>
<ellipse fill="none" stroke="black" cx="95" cy="-18" rx="27" ry="18"/>
<text text-anchor="middle" x="95" y="-14.3" font-family="Times,serif" font-size="14.00">a</text>
</g>
<!-- b -->
<g id="node4" class="node"><title>b</title>
<ellipse fill="none" stroke="black" cx="95" cy="-90" rx="27" ry="18"/>
<text text-anchor="middle" x="95" y="-86.3" font-family="Times,serif" font-size="14.00">b</text>
</g>
<!-- b&#45;&gt;a -->
<g id="edge1" class="edge"><title>b&#45;&gt;a</title>
<path fill="none" stroke="black" d="M95,-71.6966C95,-63.9827 95,-54.7125 95,-46.1124"/>
<polygon fill="black" stroke="black" points="98.5001,-46.1043 95,-36.1043 91.5001,-46.1044 98.5001,-46.1043"/>
</g>
<!-- c -->
<g id="node5" class="node"><title>c</title>
<ellipse fill="none" stroke="black" cx="95" cy="-162" rx="27" ry="18"/>
<text text-anchor="middle" x="95" y="-158.3" font-family="Times,serif" font-size="14.00">c</text>
</g>
<!-- c&#45;&gt;b -->
<g id="edge2" class="edge"><title>c&#45;&gt;b</title>
<path fill="none" stroke="black" d="M95,-143.697C95,-135.983 95,-126.712 95,-118.112"/>
<polygon fill="black" stroke="black" points="98.5001,-118.104 95,-108.104 91.5001,-118.104 98.5001,-118.104"/>
</g>
<!-- d -->
<g id="node6" class="node"><title>d</title>
<ellipse fill="none" stroke="black" cx="167" cy="-162" rx="27" ry="18"/>
<text text-anchor="middle" x="167" y="-158.3" font-family="Times,serif" font-size="14.00">d</text>
</g>
<!-- d&#45;&gt;b -->
<g id="edge3" class="edge"><title>d&#45;&gt;b</title>
<path fill="none" stroke="black" d="M152.43,-146.834C142.25,-136.938 128.476,-123.546 116.969,-112.359"/>
<polygon fill="black" stroke="black" points="119.405,-109.846 109.796,-105.385 114.526,-114.865 119.405,-109.846"/>
</g>
<!-- e -->
<g id="node7" class="node"><title>e</title>
<ellipse fill="none" stroke="black" cx="167" cy="-234" rx="27" ry="18"/>
<text text-anchor="middle" x="167" y="-230.3" font-family="Times,serif" font-size="14.00">e</text>
</g>
<!-- e&#45;&gt;c -->
<g id="edge4" class="edge"><title>e&#45;&gt;c</title>
<path fill="none" stroke="black" d="M152.43,-218.834C142.25,-208.938 128.476,-195.546 116.969,-184.359"/>
<polygon fill="black" stroke="black" points="119.405,-181.846 109.796,-177.385 114.526,-186.865 119.405,-181.846"/>
</g>
<!-- e&#45;&gt;d -->
<g id="edge5" class="edge"><title>e&#45;&gt;d</title>
<path fill="none" stroke="black" d="M167,-215.697C167,-207.983 167,-198.712 167,-190.112"/>
<polygon fill="black" stroke="black" points="170.5,-190.104 167,-180.104 163.5,-190.104 170.5,-190.104"/>
</g>
<!-- f -->
<g id="node9" class="node"><title>f</title>
<ellipse fill="none" stroke="black" cx="95" cy="-234" rx="27" ry="18"/>
<text text-anchor="middle" x="95" y="-230.3" font-family="Times,serif" font-size="14.00">f</text>
</g>
<!-- g&#45;&gt;f -->
<g id="edge6" class="edge"><title>g&#45;&gt;f</title>
<path fill="none" stroke="black" d="M95,-287.697C95,-279.983 95,-270.712 95,-262.112"/>
<polygon fill="black" stroke="black" points="98.5001,-262.104 95,-252.104 91.5001,-262.104 98.5001,-262.104"/>
</g>
<!-- f&#45;&gt;c -->
<g id="edge7" class="edge"><title>f&#45;&gt;c</title>
<path fill="none" stroke="black" d="M95,-215.697C95,-207.983 95,-198.712 95,-190.112"/>
<polygon fill="black" stroke="black" points="98.5001,-190.104 95,-180.104 91.5001,-190.104 98.5001,-190.104"/>
</g>
<!-- h -->
<g id="node10" class="node"><title>h</title>
<ellipse fill="none" stroke="black" cx="167" cy="-306" rx="27" ry="18"/>
<text text-anchor="middle" x="167" y="-302.3" font-family="Times,serif" font-size="14.00">h</text>
</g>
<!-- h&#45;&gt;e -->
<g id="edge8" class="edge"><title>h&#45;&gt;e</title>
<path fill="none" stroke="black" d="M167,-287.697C167,-279.983 167,-270.712 167,-262.112"/>
<polygon fill="black" stroke="black" points="170.5,-262.104 167,-252.104 163.5,-262.104 170.5,-262.104"/>
</g>
<!-- i&#45;&gt;g -->
<g id="edge9" class="edge"><title>i&#45;&gt;g</title>
<path fill="none" stroke="black" d="M152.43,-362.834C142.25,-352.938 128.476,-339.546 116.969,-328.359"/>
<polygon fill="black" stroke="black" points="119.405,-325.846 109.796,-321.385 114.526,-330.865 119.405,-325.846"/>
</g>
<!-- i&#45;&gt;h -->
<g id="edge10" class="edge"><title>i&#45;&gt;h</title>
<path fill="none" stroke="black" d="M167,-359.697C167,-351.983 167,-342.712 167,-334.112"/>
<polygon fill="black" stroke="black" points="170.5,-334.104 167,-324.104 163.5,-334.104 170.5,-334.104"/>
</g>
</g>
</svg>
