<?xml version="1.0" encoding="UTF-8" standalone="no"?>
<!DOCTYPE svg PUBLIC "-//W3C//DTD SVG 1.1//EN"
 "http://www.w3.org/Graphics/SVG/1.1/DTD/svg11.dtd">
<!-- Generated by graphviz version 2.38.0 (20140413.2041)
 -->
<!-- Title: git&#45;history Pages: 1 -->
<svg width="218pt" height="386pt"
 viewBox="0.00 0.00 218.00 386.00" xmlns="http://www.w3.org/2000/svg" xmlns:xlink="http://www.w3.org/1999/xlink">
<g id="graph0" class="graph" transform="scale(1 1) rotate(0) translate(4 382)">
<title>git&#45;history</title>
<polygon fill="white" stroke="none" points="-4,4 -4,-382 214,-382 214,4 -4,4"/>
<g id="clust2" class="cluster"><title>cluster_developer2</title>
</g>
<!-- remote -->
<g id="node1" class="node"><title>remote</title>
<polygon fill="lightblue" stroke="black" points="122,-243 -7.10543e-15,-243 -7.10543e-15,-225 122,-225 122,-243"/>
<text text-anchor="middle" x="61" y="-231.8" font-family="Times,serif" font-size="9.00">remotes/MYSERVER/master</text>
</g>
<!-- c -->
<g id="node5" class="node"><title>c</title>
<ellipse fill="none" stroke="black" cx="61" cy="-162" rx="27" ry="18"/>
<text text-anchor="middle" x="61" y="-158.3" font-family="Times,serif" font-size="14.00">c</text>
</g>
<!-- remote&#45;&gt;c -->
<g id="edge5" class="edge"><title>remote&#45;&gt;c</title>
<path fill="none" stroke="black" d="M61,-224.97C61,-216.582 61,-202.95 61,-190.604"/>
<polygon fill="black" stroke="black" points="64.5001,-190.25 61,-180.25 57.5001,-190.25 64.5001,-190.25"/>
</g>
<!-- master -->
<g id="node2" class="node"><title>master</title>
<polygon fill="yellow" stroke="black" points="194,-378 140,-378 140,-360 194,-360 194,-378"/>
<text text-anchor="middle" x="167" y="-366.8" font-family="Times,serif" font-size="9.00">master</text>
</g>
<!-- h -->
<g id="node7" class="node"><title>h</title>
<ellipse fill="none" stroke="black" cx="167" cy="-306" rx="27" ry="18"/>
<text text-anchor="middle" x="167" y="-302.3" font-family="Times,serif" font-size="14.00">h</text>
</g>
<!-- master&#45;&gt;h -->
<g id="edge6" class="edge"><title>master&#45;&gt;h</title>
<path fill="none" stroke="black" d="M167,-359.773C167,-353.157 167,-343.467 167,-334.19"/>
<polygon fill="black" stroke="black" points="170.5,-334.078 167,-324.078 163.5,-334.078 170.5,-334.078"/>
</g>
<!-- a -->
<g id="node3" class="node"><title>a</title>
<ellipse fill="none" stroke="black" cx="61" cy="-18" rx="27" ry="18"/>
<text text-anchor="middle" x="61" y="-14.3" font-family="Times,serif" font-size="14.00">a</text>
</g>
<!-- b -->
<g id="node4" class="node"><title>b</title>
<ellipse fill="none" stroke="black" cx="61" cy="-90" rx="27" ry="18"/>
<text text-anchor="middle" x="61" y="-86.3" font-family="Times,serif" font-size="14.00">b</text>
</g>
<!-- b&#45;&gt;a -->
<g id="edge1" class="edge"><title>b&#45;&gt;a</title>
<path fill="none" stroke="black" d="M61,-71.6966C61,-63.9827 61,-54.7125 61,-46.1124"/>
<polygon fill="black" stroke="black" points="64.5001,-46.1043 61,-36.1043 57.5001,-46.1044 64.5001,-46.1043"/>
</g>
<!-- c&#45;&gt;b -->
<g id="edge2" class="edge"><title>c&#45;&gt;b</title>
<path fill="none" stroke="black" d="M61,-143.697C61,-135.983 61,-126.712 61,-118.112"/>
<polygon fill="black" stroke="black" points="64.5001,-118.104 61,-108.104 57.5001,-118.104 64.5001,-118.104"/>
</g>
<!-- d2 -->
<g id="node6" class="node"><title>d2</title>
<ellipse fill="none" stroke="black" cx="167" cy="-234" rx="27" ry="18"/>
<text text-anchor="middle" x="167" y="-230.3" font-family="Times,serif" font-size="14.00">d2</text>
</g>
<!-- d2&#45;&gt;c -->
<g id="edge3" class="edge"><title>d2&#45;&gt;c</title>
<path fill="none" stroke="black" d="M149.141,-220.411C143.38,-216.401 136.947,-211.974 131,-208 117.142,-198.738 101.557,-188.684 88.6162,-180.434"/>
<polygon fill="black" stroke="black" points="90.4506,-177.452 80.1337,-175.042 86.6954,-183.36 90.4506,-177.452"/>
</g>
<!-- h&#45;&gt;d2 -->
<g id="edge4" class="edge"><title>h&#45;&gt;d2</title>
<path fill="none" stroke="black" d="M167,-287.697C167,-279.983 167,-270.712 167,-262.112"/>
<polygon fill="black" stroke="black" points="170.5,-262.104 167,-252.104 163.5,-262.104 170.5,-262.104"/>
</g>
</g>
</svg>
