<?xml version="1.0" encoding="UTF-8" standalone="no"?>
<!DOCTYPE svg PUBLIC "-//W3C//DTD SVG 1.1//EN"
 "http://www.w3.org/Graphics/SVG/1.1/DTD/svg11.dtd">
<!-- Generated by graphviz version 2.38.0 (20140413.2041)
 -->
<!-- Title: git&#45;history Pages: 1 -->
<svg width="218pt" height="314pt"
 viewBox="0.00 0.00 218.00 314.00" xmlns="http://www.w3.org/2000/svg" xmlns:xlink="http://www.w3.org/1999/xlink">
<g id="graph0" class="graph" transform="scale(1 1) rotate(0) translate(4 310)">
<title>git&#45;history</title>
<polygon fill="white" stroke="none" points="-4,4 -4,-310 214,-310 214,4 -4,4"/>
<g id="clust2" class="cluster"><title>cluster_developer2</title>
</g>
<!-- remote -->
<g id="node1" class="node"><title>remote</title>
<polygon fill="lightblue" stroke="black" points="122,-243 -7.10543e-15,-243 -7.10543e-15,-225 122,-225 122,-243"/>
<text text-anchor="middle" x="61" y="-231.8" font-family="Times,serif" font-size="9.00">remotes/MYSERVER/master</text>
</g>
<!-- c -->
<g id="node5" class="node"><title>c</title>
<ellipse fill="none" stroke="black" cx="95" cy="-162" rx="27" ry="18"/>
<text text-anchor="middle" x="95" y="-158.3" font-family="Times,serif" font-size="14.00">c</text>
</g>
<!-- remote&#45;&gt;c -->
<g id="edge6" class="edge"><title>remote&#45;&gt;c</title>
<path fill="none" stroke="black" d="M64.9002,-224.97C69.1813,-216.156 76.2748,-201.552 82.5005,-188.734"/>
<polygon fill="black" stroke="black" points="85.8104,-189.931 87.0312,-179.406 79.5138,-186.872 85.8104,-189.931"/>
</g>
<!-- master -->
<g id="node2" class="node"><title>master</title>
<polygon fill="yellow" stroke="black" points="194,-306 140,-306 140,-288 194,-288 194,-306"/>
<text text-anchor="middle" x="167" y="-294.8" font-family="Times,serif" font-size="9.00">master</text>
</g>
<!-- e -->
<g id="node7" class="node"><title>e</title>
<ellipse fill="none" stroke="black" cx="167" cy="-234" rx="27" ry="18"/>
<text text-anchor="middle" x="167" y="-230.3" font-family="Times,serif" font-size="14.00">e</text>
</g>
<!-- master&#45;&gt;e -->
<g id="edge7" class="edge"><title>master&#45;&gt;e</title>
<path fill="none" stroke="black" d="M167,-287.773C167,-281.157 167,-271.467 167,-262.19"/>
<polygon fill="black" stroke="black" points="170.5,-262.078 167,-252.078 163.5,-262.078 170.5,-262.078"/>
</g>
<!-- a -->
<g id="node3" class="node"><title>a</title>
<ellipse fill="none" stroke="black" cx="95" cy="-18" rx="27" ry="18"/>
<text text-anchor="middle" x="95" y="-14.3" font-family="Times,serif" font-size="14.00">a</text>
</g>
<!-- b -->
<g id="node4" class="node"><title>b</title>
<ellipse fill="none" stroke="black" cx="95" cy="-90" rx="27" ry="18"/>
<text text-anchor="middle" x="95" y="-86.3" font-family="Times,serif" font-size="14.00">b</text>
</g>
<!-- b&#45;&gt;a -->
<g id="edge1" class="edge"><title>b&#45;&gt;a</title>
<path fill="none" stroke="black" d="M95,-71.6966C95,-63.9827 95,-54.7125 95,-46.1124"/>
<polygon fill="black" stroke="black" points="98.5001,-46.1043 95,-36.1043 91.5001,-46.1044 98.5001,-46.1043"/>
</g>
<!-- c&#45;&gt;b -->
<g id="edge2" class="edge"><title>c&#45;&gt;b</title>
<path fill="none" stroke="black" d="M95,-143.697C95,-135.983 95,-126.712 95,-118.112"/>
<polygon fill="black" stroke="black" points="98.5001,-118.104 95,-108.104 91.5001,-118.104 98.5001,-118.104"/>
</g>
<!-- d -->
<g id="node6" class="node"><title>d</title>
<ellipse fill="none" stroke="black" cx="167" cy="-162" rx="27" ry="18"/>
<text text-anchor="middle" x="167" y="-158.3" font-family="Times,serif" font-size="14.00">d</text>
</g>
<!-- d&#45;&gt;b -->
<g id="edge3" class="edge"><title>d&#45;&gt;b</title>
<path fill="none" stroke="black" d="M152.43,-146.834C142.25,-136.938 128.476,-123.546 116.969,-112.359"/>
<polygon fill="black" stroke="black" points="119.405,-109.846 109.796,-105.385 114.526,-114.865 119.405,-109.846"/>
</g>
<!-- e&#45;&gt;c -->
<g id="edge4" class="edge"><title>e&#45;&gt;c</title>
<path fill="none" stroke="black" d="M152.43,-218.834C142.25,-208.938 128.476,-195.546 116.969,-184.359"/>
<polygon fill="black" stroke="black" points="119.405,-181.846 109.796,-177.385 114.526,-186.865 119.405,-181.846"/>
</g>
<!-- e&#45;&gt;d -->
<g id="edge5" class="edge"><title>e&#45;&gt;d</title>
<path fill="none" stroke="black" d="M167,-215.697C167,-207.983 167,-198.712 167,-190.112"/>
<polygon fill="black" stroke="black" points="170.5,-190.104 167,-180.104 163.5,-190.104 170.5,-190.104"/>
</g>
</g>
</svg>
