<?xml version="1.0" encoding="UTF-8" standalone="no"?>
<!DOCTYPE svg PUBLIC "-//W3C//DTD SVG 1.1//EN"
 "http://www.w3.org/Graphics/SVG/1.1/DTD/svg11.dtd">
<!-- Generated by graphviz version 2.38.0 (20140413.2041)
 -->
<!-- Title: git&#45;history Pages: 1 -->
<svg width="202pt" height="98pt"
 viewBox="0.00 0.00 202.00 98.00" xmlns="http://www.w3.org/2000/svg" xmlns:xlink="http://www.w3.org/1999/xlink">
<g id="graph0" class="graph" transform="scale(1 1) rotate(0) translate(4 94)">
<title>git&#45;history</title>
<polygon fill="white" stroke="none" points="-4,4 -4,-94 198,-94 198,4 -4,4"/>
<!-- remote -->
<g id="node1" class="node"><title>remote</title>
<polygon fill="lightblue" stroke="black" points="122,-90 -7.10543e-15,-90 -7.10543e-15,-72 122,-72 122,-90"/>
<text text-anchor="middle" x="61" y="-78.8" font-family="Times,serif" font-size="9.00">remotes/MYSERVER/master</text>
</g>
<!-- a -->
<g id="node3" class="node"><title>a</title>
<ellipse fill="none" stroke="black" cx="114" cy="-18" rx="27" ry="18"/>
<text text-anchor="middle" x="114" y="-14.3" font-family="Times,serif" font-size="14.00">a</text>
</g>
<!-- remote&#45;&gt;a -->
<g id="edge1" class="edge"><title>remote&#45;&gt;a</title>
<path fill="none" stroke="black" d="M68.1478,-71.7733C74.8125,-64.1025 85.0681,-52.299 94.1914,-41.7986"/>
<polygon fill="black" stroke="black" points="96.9524,-43.9572 100.869,-34.1129 91.6683,-39.3661 96.9524,-43.9572"/>
</g>
<!-- master -->
<g id="node2" class="node"><title>master</title>
<polygon fill="yellow" stroke="black" points="194,-90 140,-90 140,-72 194,-72 194,-90"/>
<text text-anchor="middle" x="167" y="-78.8" font-family="Times,serif" font-size="9.00">master</text>
</g>
<!-- master&#45;&gt;a -->
<g id="edge2" class="edge"><title>master&#45;&gt;a</title>
<path fill="none" stroke="black" d="M159.852,-71.7733C153.187,-64.1025 142.932,-52.299 133.809,-41.7986"/>
<polygon fill="black" stroke="black" points="136.332,-39.3661 127.131,-34.1129 131.048,-43.9572 136.332,-39.3661"/>
</g>
</g>
</svg>
