<?xml version="1.0" encoding="UTF-8" standalone="no"?>
<!DOCTYPE svg PUBLIC "-//W3C//DTD SVG 1.1//EN"
 "http://www.w3.org/Graphics/SVG/1.1/DTD/svg11.dtd">
<!-- Generated by graphviz version 2.38.0 (20140413.2041)
 -->
<!-- Title: git&#45;storage Pages: 1 -->
<svg width="227pt" height="361pt"
 viewBox="0.00 0.00 226.70 360.74" xmlns="http://www.w3.org/2000/svg" xmlns:xlink="http://www.w3.org/1999/xlink">
<g id="graph0" class="graph" transform="scale(1 1) rotate(0) translate(4 356.74)">
<title>git&#45;storage</title>
<polygon fill="white" stroke="none" points="-4,4 -4,-356.74 222.705,-356.74 222.705,4 -4,4"/>
<!-- blob -->
<g id="node1" class="node"><title>blob</title>
<ellipse fill="none" stroke="black" cx="110.5" cy="-18" rx="27" ry="18"/>
<text text-anchor="middle" x="110.5" y="-14.3" font-family="Times,serif" font-size="14.00">blob</text>
</g>
<!-- tree -->
<g id="node2" class="node"><title>tree</title>
<ellipse fill="none" stroke="black" cx="110.5" cy="-120" rx="27" ry="18"/>
<text text-anchor="middle" x="110.5" y="-116.3" font-family="Times,serif" font-size="14.00">tree</text>
</g>
<!-- tree&#45;&gt;blob -->
<g id="edge1" class="edge"><title>tree&#45;&gt;blob</title>
<path fill="none" stroke="black" d="M110.5,-101.581C110.5,-86.3816 110.5,-64.0669 110.5,-46.4644"/>
<polygon fill="black" stroke="black" points="114,-46.219 110.5,-36.2191 107,-46.2191 114,-46.219"/>
<text text-anchor="start" x="110.5" y="-72.8" font-family="Times,serif" font-size="14.00">+filename</text>
<text text-anchor="start" x="110.5" y="-57.8" font-family="Times,serif" font-size="14.00">+mode</text>
</g>
<!-- tree&#45;&gt;tree -->
<g id="edge2" class="edge"><title>tree&#45;&gt;tree</title>
<path fill="none" stroke="black" d="M135.943,-126.691C146.528,-127.152 155.5,-124.922 155.5,-120 155.5,-116.77 151.636,-114.699 145.988,-113.788"/>
<polygon fill="black" stroke="black" points="146.099,-110.289 135.943,-113.309 145.766,-117.281 146.099,-110.289"/>
<text text-anchor="start" x="155.5" y="-123.8" font-family="Times,serif" font-size="14.00">subdir</text>
<text text-anchor="middle" x="184" y="-108.8" font-family="Times,serif" font-size="14.00">+filename</text>
</g>
<!-- commit -->
<g id="node3" class="node"><title>commit</title>
<ellipse fill="none" stroke="black" cx="110.5" cy="-201.87" rx="50.41" ry="26.7407"/>
<text text-anchor="start" x="83" y="-205.67" font-family="Times,serif" font-size="14.00">commit</text>
<text text-anchor="start" x="83" y="-190.67" font-family="Times,serif" font-size="14.00">&#45; message</text>
</g>
<!-- commit&#45;&gt;tree -->
<g id="edge3" class="edge"><title>commit&#45;&gt;tree</title>
<path fill="none" stroke="black" d="M110.5,-174.718C110.5,-166.273 110.5,-156.89 110.5,-148.36"/>
<polygon fill="black" stroke="black" points="114,-148.146 110.5,-138.146 107,-148.146 114,-148.146"/>
</g>
<!-- commit&#45;&gt;commit -->
<g id="edge4" class="edge"><title>commit&#45;&gt;commit</title>
<path fill="none" stroke="black" d="M158.619,-209.975C170.156,-209.341 178.705,-206.64 178.705,-201.87 178.705,-198.666 174.846,-196.395 168.814,-195.057"/>
<polygon fill="black" stroke="black" points="168.98,-191.55 158.619,-193.766 168.1,-198.495 168.98,-191.55"/>
<text text-anchor="middle" x="198.705" y="-198.17" font-family="Times,serif" font-size="14.00">parents</text>
</g>
<!-- branchname -->
<g id="node4" class="node"><title>branchname</title>
<polygon fill="yellow" stroke="black" points="59,-283.74 0,-283.74 0,-265.74 59,-265.74 59,-283.74"/>
<text text-anchor="middle" x="29.5" y="-272.54" font-family="Times,serif" font-size="9.00">branchname</text>
</g>
<!-- branchname&#45;&gt;commit -->
<g id="edge5" class="edge"><title>branchname&#45;&gt;commit</title>
<path fill="none" stroke="black" d="M38.7917,-265.61C48.2584,-257.328 63.4974,-243.994 77.4977,-231.745"/>
<polygon fill="black" stroke="black" points="79.8824,-234.309 85.1037,-225.09 75.273,-229.041 79.8824,-234.309"/>
</g>
<!-- HEAD -->
<g id="node5" class="node"><title>HEAD</title>
<polygon fill="yellow" stroke="black" points="56.5,-352.74 2.5,-352.74 2.5,-334.74 56.5,-334.74 56.5,-352.74"/>
<text text-anchor="middle" x="29.5" y="-341.54" font-family="Times,serif" font-size="9.00">HEAD</text>
</g>
<!-- HEAD&#45;&gt;branchname -->
<g id="edge6" class="edge"><title>HEAD&#45;&gt;branchname</title>
<path fill="none" stroke="black" stroke-dasharray="1,5" d="M29.5,-334.525C29.5,-324.579 29.5,-307.525 29.5,-294.339"/>
<polygon fill="black" stroke="black" points="33.0001,-294.023 29.5,-284.023 26.0001,-294.023 33.0001,-294.023"/>
<text text-anchor="middle" x="39" y="-305.54" font-family="Times,serif" font-size="14.00">ref:</text>
</g>
<!-- remote -->
<g id="node6" class="node"><title>remote</title>
<polygon fill="lightblue" stroke="black" points="199.5,-283.74 77.5,-283.74 77.5,-265.74 199.5,-265.74 199.5,-283.74"/>
<text text-anchor="middle" x="138.5" y="-272.54" font-family="Times,serif" font-size="9.00">remotes/MYSERVER/master</text>
</g>
<!-- remote&#45;&gt;commit -->
<g id="edge7" class="edge"><title>remote&#45;&gt;commit</title>
<path fill="none" stroke="black" d="M135.288,-265.61C132.539,-258.651 128.381,-248.127 124.251,-237.676"/>
<polygon fill="black" stroke="black" points="127.438,-236.217 120.509,-228.202 120.928,-238.789 127.438,-236.217"/>
</g>
</g>
</svg>
