<?xml version="1.0" encoding="UTF-8" standalone="no"?>
<!DOCTYPE svg PUBLIC "-//W3C//DTD SVG 1.1//EN"
 "http://www.w3.org/Graphics/SVG/1.1/DTD/svg11.dtd">
<!-- Generated by graphviz version 2.38.0 (20140413.2041)
 -->
<!-- Title: git&#45;history Pages: 1 -->
<svg width="168pt" height="170pt"
 viewBox="0.00 0.00 168.00 170.00" xmlns="http://www.w3.org/2000/svg" xmlns:xlink="http://www.w3.org/1999/xlink">
<g id="graph0" class="graph" transform="scale(1 1) rotate(0) translate(4 166)">
<title>git&#45;history</title>
<polygon fill="white" stroke="none" points="-4,4 -4,-166 164,-166 164,4 -4,4"/>
<!-- remote -->
<g id="node1" class="node"><title>remote</title>
<polygon fill="lightblue" stroke="black" points="122,-162 -7.10543e-15,-162 -7.10543e-15,-144 122,-144 122,-162"/>
<text text-anchor="middle" x="61" y="-150.8" font-family="Times,serif" font-size="9.00">remotes/MYSERVER/master</text>
</g>
<!-- b -->
<g id="node4" class="node"><title>b</title>
<ellipse fill="none" stroke="black" cx="61" cy="-90" rx="27" ry="18"/>
<text text-anchor="middle" x="61" y="-86.3" font-family="Times,serif" font-size="14.00">b</text>
</g>
<!-- remote&#45;&gt;b -->
<g id="edge2" class="edge"><title>remote&#45;&gt;b</title>
<path fill="none" stroke="black" d="M61,-143.773C61,-137.157 61,-127.467 61,-118.19"/>
<polygon fill="black" stroke="black" points="64.5001,-118.078 61,-108.078 57.5001,-118.078 64.5001,-118.078"/>
</g>
<!-- master -->
<g id="node2" class="node"><title>master</title>
<polygon fill="yellow" stroke="black" points="160,-99 106,-99 106,-81 160,-81 160,-99"/>
<text text-anchor="middle" x="133" y="-87.8" font-family="Times,serif" font-size="9.00">master</text>
</g>
<!-- a -->
<g id="node3" class="node"><title>a</title>
<ellipse fill="none" stroke="black" cx="61" cy="-18" rx="27" ry="18"/>
<text text-anchor="middle" x="61" y="-14.3" font-family="Times,serif" font-size="14.00">a</text>
</g>
<!-- master&#45;&gt;a -->
<g id="edge3" class="edge"><title>master&#45;&gt;a</title>
<path fill="none" stroke="black" d="M124.741,-80.9701C114.643,-71.1528 97.1566,-54.1522 83.0505,-40.438"/>
<polygon fill="black" stroke="black" points="85.2397,-37.6849 75.6299,-33.2235 80.3601,-42.7038 85.2397,-37.6849"/>
</g>
<!-- b&#45;&gt;a -->
<g id="edge1" class="edge"><title>b&#45;&gt;a</title>
<path fill="none" stroke="black" d="M61,-71.6966C61,-63.9827 61,-54.7125 61,-46.1124"/>
<polygon fill="black" stroke="black" points="64.5001,-46.1043 61,-36.1043 57.5001,-46.1044 64.5001,-46.1043"/>
</g>
</g>
</svg>
