<?xml version="1.0" encoding="UTF-8" standalone="no"?>
<!DOCTYPE svg PUBLIC "-//W3C//DTD SVG 1.1//EN"
 "http://www.w3.org/Graphics/SVG/1.1/DTD/svg11.dtd">
<!-- Generated by graphviz version 2.38.0 (20140413.2041)
 -->
<!-- Title: git&#45;storage Pages: 1 -->
<svg width="326pt" height="418pt"
 viewBox="0.00 0.00 326.20 417.69" xmlns="http://www.w3.org/2000/svg" xmlns:xlink="http://www.w3.org/1999/xlink">
<g id="graph0" class="graph" transform="scale(1 1) rotate(0) translate(4 413.693)">
<title>git&#45;storage</title>
<polygon fill="white" stroke="none" points="-4,4 -4,-413.693 322.205,-413.693 322.205,4 -4,4"/>
<!-- blob -->
<g id="node1" class="node"><title>blob</title>
<ellipse fill="none" stroke="black" cx="148.205" cy="-18" rx="27" ry="18"/>
<text text-anchor="middle" x="148.205" y="-14.3" font-family="Times,serif" font-size="14.00">blob</text>
</g>
<!-- tree -->
<g id="node2" class="node"><title>tree</title>
<ellipse fill="none" stroke="black" cx="148.205" cy="-120" rx="27" ry="18"/>
<text text-anchor="middle" x="148.205" y="-116.3" font-family="Times,serif" font-size="14.00">tree</text>
</g>
<!-- tree&#45;&gt;blob -->
<g id="edge1" class="edge"><title>tree&#45;&gt;blob</title>
<path fill="none" stroke="black" d="M148.205,-101.581C148.205,-86.3816 148.205,-64.0669 148.205,-46.4644"/>
<polygon fill="black" stroke="black" points="151.705,-46.219 148.205,-36.2191 144.705,-46.2191 151.705,-46.219"/>
<text text-anchor="start" x="148.205" y="-72.8" font-family="Times,serif" font-size="14.00">+filename</text>
<text text-anchor="start" x="148.205" y="-57.8" font-family="Times,serif" font-size="14.00">+mode</text>
</g>
<!-- tree&#45;&gt;tree -->
<g id="edge2" class="edge"><title>tree&#45;&gt;tree</title>
<path fill="none" stroke="black" d="M173.648,-126.691C184.232,-127.152 193.205,-124.922 193.205,-120 193.205,-116.77 189.341,-114.699 183.693,-113.788"/>
<polygon fill="black" stroke="black" points="183.803,-110.289 173.648,-113.309 183.47,-117.281 183.803,-110.289"/>
<text text-anchor="start" x="193.205" y="-123.8" font-family="Times,serif" font-size="14.00">subdir</text>
<text text-anchor="middle" x="221.705" y="-108.8" font-family="Times,serif" font-size="14.00">+filename</text>
</g>
<!-- commit -->
<g id="node3" class="node"><title>commit</title>
<ellipse fill="none" stroke="black" cx="148.205" cy="-201.87" rx="50.41" ry="26.7407"/>
<text text-anchor="start" x="120.705" y="-205.67" font-family="Times,serif" font-size="14.00">commit</text>
<text text-anchor="start" x="120.705" y="-190.67" font-family="Times,serif" font-size="14.00">&#45; message</text>
</g>
<!-- commit&#45;&gt;tree -->
<g id="edge3" class="edge"><title>commit&#45;&gt;tree</title>
<path fill="none" stroke="black" d="M148.205,-174.718C148.205,-166.273 148.205,-156.89 148.205,-148.36"/>
<polygon fill="black" stroke="black" points="151.705,-148.146 148.205,-138.146 144.705,-148.146 151.705,-148.146"/>
</g>
<!-- commit&#45;&gt;commit -->
<g id="edge4" class="edge"><title>commit&#45;&gt;commit</title>
<path fill="none" stroke="black" d="M196.324,-209.975C207.861,-209.341 216.409,-206.64 216.409,-201.87 216.409,-198.666 212.55,-196.395 206.519,-195.057"/>
<polygon fill="black" stroke="black" points="206.684,-191.55 196.324,-193.766 205.804,-198.495 206.684,-191.55"/>
<text text-anchor="middle" x="236.409" y="-198.17" font-family="Times,serif" font-size="14.00">parents</text>
</g>
<!-- tag -->
<g id="node4" class="node"><title>tag</title>
<ellipse fill="none" stroke="black" cx="50.2046" cy="-303.217" rx="50.41" ry="37.4533"/>
<text text-anchor="start" x="22.7046" y="-314.517" font-family="Times,serif" font-size="14.00">tag</text>
<text text-anchor="start" x="22.7046" y="-299.517" font-family="Times,serif" font-size="14.00">&#45; name</text>
<text text-anchor="start" x="22.7046" y="-284.517" font-family="Times,serif" font-size="14.00">&#45; message</text>
</g>
<!-- tag&#45;&gt;commit -->
<g id="edge5" class="edge"><title>tag&#45;&gt;commit</title>
<path fill="none" stroke="black" d="M79.3425,-272.678C91.6053,-260.247 105.866,-245.791 118.218,-233.268"/>
<polygon fill="black" stroke="black" points="120.711,-235.726 125.241,-226.149 115.727,-230.81 120.711,-235.726"/>
</g>
<!-- branchname -->
<g id="node5" class="node"><title>branchname</title>
<polygon fill="yellow" stroke="black" points="177.705,-312.217 118.705,-312.217 118.705,-294.217 177.705,-294.217 177.705,-312.217"/>
<text text-anchor="middle" x="148.205" y="-301.017" font-family="Times,serif" font-size="9.00">branchname</text>
</g>
<!-- branchname&#45;&gt;commit -->
<g id="edge6" class="edge"><title>branchname&#45;&gt;commit</title>
<path fill="none" stroke="black" d="M148.205,-294.087C148.205,-282.09 148.205,-258.906 148.205,-238.914"/>
<polygon fill="black" stroke="black" points="151.705,-238.826 148.205,-228.826 144.705,-238.826 151.705,-238.826"/>
</g>
<!-- HEAD -->
<g id="node6" class="node"><title>HEAD</title>
<polygon fill="yellow" stroke="black" points="175.205,-409.693 121.205,-409.693 121.205,-391.693 175.205,-391.693 175.205,-409.693"/>
<text text-anchor="middle" x="148.205" y="-398.493" font-family="Times,serif" font-size="9.00">HEAD</text>
</g>
<!-- HEAD&#45;&gt;branchname -->
<g id="edge7" class="edge"><title>HEAD&#45;&gt;branchname</title>
<path fill="none" stroke="black" stroke-dasharray="1,5" d="M148.205,-391.553C148.205,-376.333 148.205,-343.23 148.205,-322.432"/>
<polygon fill="black" stroke="black" points="151.705,-322.336 148.205,-312.336 144.705,-322.336 151.705,-322.336"/>
<text text-anchor="middle" x="157.705" y="-362.493" font-family="Times,serif" font-size="14.00">ref:</text>
</g>
<!-- remote -->
<g id="node7" class="node"><title>remote</title>
<polygon fill="lightblue" stroke="black" points="318.205,-312.217 196.205,-312.217 196.205,-294.217 318.205,-294.217 318.205,-312.217"/>
<text text-anchor="middle" x="257.205" y="-301.017" font-family="Times,serif" font-size="9.00">remotes/MYSERVER/master</text>
</g>
<!-- remote&#45;&gt;commit -->
<g id="edge8" class="edge"><title>remote&#45;&gt;commit</title>
<path fill="none" stroke="black" d="M248.285,-294.087C233.667,-280.764 203.909,-253.642 180.624,-232.418"/>
<polygon fill="black" stroke="black" points="182.755,-229.625 173.007,-225.475 178.04,-234.799 182.755,-229.625"/>
</g>
<!-- tagname -->
<g id="node8" class="node"><title>tagname</title>
<polygon fill="darkorange" stroke="black" points="77.2046,-409.693 23.2046,-409.693 23.2046,-391.693 77.2046,-391.693 77.2046,-409.693"/>
<text text-anchor="middle" x="50.2046" y="-398.493" font-family="Times,serif" font-size="9.00">tagname</text>
</g>
<!-- tagname&#45;&gt;tag -->
<g id="edge9" class="edge"><title>tagname&#45;&gt;tag</title>
<path fill="none" stroke="black" d="M50.2046,-391.553C50.2046,-382.379 50.2046,-366.707 50.2046,-351.149"/>
<polygon fill="black" stroke="black" points="53.7047,-351.011 50.2046,-341.011 46.7047,-351.011 53.7047,-351.011"/>
</g>
</g>
</svg>
