<?xml version="1.0" encoding="UTF-8" standalone="no"?>
<!DOCTYPE svg PUBLIC "-//W3C//DTD SVG 1.1//EN"
 "http://www.w3.org/Graphics/SVG/1.1/DTD/svg11.dtd">
<!-- Generated by graphviz version 2.38.0 (20140413.2041)
 -->
<!-- Title: git&#45;storage Pages: 1 -->
<svg width="137pt" height="146pt"
 viewBox="0.00 0.00 137.00 146.00" xmlns="http://www.w3.org/2000/svg" xmlns:xlink="http://www.w3.org/1999/xlink">
<g id="graph0" class="graph" transform="scale(1 1) rotate(0) translate(4 142)">
<title>git&#45;storage</title>
<polygon fill="white" stroke="none" points="-4,4 -4,-142 133,-142 133,4 -4,4"/>
<!-- blob -->
<g id="node1" class="node"><title>blob</title>
<ellipse fill="none" stroke="black" cx="27" cy="-18" rx="27" ry="18"/>
<text text-anchor="middle" x="27" y="-14.3" font-family="Times,serif" font-size="14.00">blob</text>
</g>
<!-- tree -->
<g id="node2" class="node"><title>tree</title>
<ellipse fill="none" stroke="black" cx="27" cy="-120" rx="27" ry="18"/>
<text text-anchor="middle" x="27" y="-116.3" font-family="Times,serif" font-size="14.00">tree</text>
</g>
<!-- tree&#45;&gt;blob -->
<g id="edge1" class="edge"><title>tree&#45;&gt;blob</title>
<path fill="none" stroke="black" d="M27,-101.581C27,-86.3816 27,-64.0669 27,-46.4644"/>
<polygon fill="black" stroke="black" points="30.5001,-46.219 27,-36.2191 23.5001,-46.2191 30.5001,-46.219"/>
<text text-anchor="start" x="27" y="-72.8" font-family="Times,serif" font-size="14.00">+filename</text>
<text text-anchor="start" x="27" y="-57.8" font-family="Times,serif" font-size="14.00">+mode</text>
</g>
<!-- tree&#45;&gt;tree -->
<g id="edge2" class="edge"><title>tree&#45;&gt;tree</title>
<path fill="none" stroke="black" d="M50.6146,-129.146C61.9731,-130.275 72,-127.227 72,-120 72,-115.145 67.4737,-112.175 61.0584,-111.092"/>
<polygon fill="black" stroke="black" points="60.6918,-107.583 50.6146,-110.854 60.5323,-114.581 60.6918,-107.583"/>
<text text-anchor="start" x="72" y="-123.8" font-family="Times,serif" font-size="14.00">subdir</text>
<text text-anchor="middle" x="100.5" y="-108.8" font-family="Times,serif" font-size="14.00">+filename</text>
</g>
</g>
</svg>
